<svg xmlns="http://www.w3.org/2000/svg" version="1.1" xmlns:xlink="http://www.w3.org/1999/xlink" xmlns:svgjs="http://svgjs.dev/svgjs" width="1440" height="560" preserveAspectRatio="none" viewBox="0 0 1440 560"><g mask="url(&quot;#SvgjsMask1008&quot;)" fill="none"><rect width="1440" height="560" x="0" y="0" fill="#0e2a47"></rect><path d="M1245.511,576.747C1293.479,573.944,1338.326,553.717,1363.99,513.095C1391.622,469.359,1401.117,414.552,1376.849,368.863C1351.178,320.533,1300.236,289.866,1245.511,290.037C1191.067,290.207,1143.896,323.174,1115.586,369.679C1085.945,418.37,1070.046,480.219,1100.343,528.504C1129.39,574.798,1190.952,579.936,1245.511,576.747" fill="rgba(28, 83, 142, 0.4)" class="triangle-float3"></path><path d="M391.95 18.88 a182.2 182.2 0 1 0 364.4 0 a182.2 182.2 0 1 0 -364.4 0z" fill="rgba(28, 83, 142, 0.4)" class="triangle-float1"></path><path d="M672.81 366.29 a114.37 114.37 0 1 0 228.74 0 a114.37 114.37 0 1 0 -228.74 0z" fill="rgba(28, 83, 142, 0.4)" class="triangle-float1"></path><path d="M70.623,218.992C117.566,219.749,168.487,208.763,191.725,167.968C214.8,127.458,199.836,77.098,173.272,38.785C150.417,5.821,110.735,-6.726,70.623,-6.699C30.569,-6.672,-9.487,5.651,-31.787,38.923C-56.815,76.266,-66.117,125.09,-43.893,164.166C-21.468,203.595,25.269,218.26,70.623,218.992" fill="rgba(28, 83, 142, 0.4)" class="triangle-float2"></path><path d="M86.082,369.649C114.71,369.216,140.891,353.306,154.676,328.212C167.976,304.002,166.413,274.075,151.279,250.967C137.429,229.82,111.35,224.223,86.082,223.474C58.957,222.669,29.027,224.412,13.823,246.89C-2.881,271.586,-1.329,304.65,13.795,330.344C28.707,355.678,56.688,370.094,86.082,369.649" fill="rgba(28, 83, 142, 0.4)" class="triangle-float2"></path><path d="M486.15 183.31 a177.91 177.91 0 1 0 355.82 0 a177.91 177.91 0 1 0 -355.82 0z" fill="rgba(28, 83, 142, 0.4)" class="triangle-float2"></path><path d="M1231.032,376.189C1257.656,377.01,1287.198,373.512,1301.139,350.815C1315.54,327.369,1308.961,297.053,1293.703,274.155C1280.06,253.679,1255.624,246.413,1231.032,245.599C1204.493,244.721,1174.783,247.218,1160.741,269.756C1146.138,293.195,1152.818,323.665,1168.037,346.709C1181.73,367.443,1206.196,375.423,1231.032,376.189" fill="rgba(28, 83, 142, 0.4)" class="triangle-float2"></path><path d="M162.09004092425786 433.78232208818065L286.2064011522565 486.4665912845654 338.8906703486412 362.3502310565668 214.7743101206426 309.66596186018205z" fill="rgba(28, 83, 142, 0.4)" class="triangle-float3"></path></g><defs><mask id="SvgjsMask1008"><rect width="1440" height="560" fill="#ffffff"></rect></mask><style>
                @keyframes float1 {
                    0%{transform: translate(0, 0)}
                    50%{transform: translate(-10px, 0)}
                    100%{transform: translate(0, 0)}
                }

                .triangle-float1 {
                    animation: float1 5s infinite;
                }

                @keyframes float2 {
                    0%{transform: translate(0, 0)}
                    50%{transform: translate(-5px, -5px)}
                    100%{transform: translate(0, 0)}
                }

                .triangle-float2 {
                    animation: float2 4s infinite;
                }

                @keyframes float3 {
                    0%{transform: translate(0, 0)}
                    50%{transform: translate(0, -10px)}
                    100%{transform: translate(0, 0)}
                }

                .triangle-float3 {
                    animation: float3 6s infinite;
                }
            </style></defs></svg>